M48
;GenerationSoftware,Autodesk,EAGLE,9.6.2*%
;CreationDate,2023-08-09T01:37:41Z*%
FMAT,2
ICI,OFF
METRIC,TZ,000.000
T10C0.400
T9C0.760
T8C0.920
T7C1.000
T6C1.016
T5C1.118
T4C1.321
T3C2.300
T2C3.000
T1C3.302
%
G90
M71
T1
X19500Y63974
T2
X2250Y2250
X97500Y2250
X97500Y97250
X2250Y97250
T3
X4700Y31180
X4700Y43220
T4
X4250Y48435
X4250Y53439
T5
X16960Y78960
X19500Y78960
X22040Y78960
T6
X4250Y22470
X4250Y19930
X4250Y17390
X4250Y14850
X36560Y53500
X34020Y53500
X31480Y53500
X28940Y53500
X16190Y53050
X18730Y53050
X21270Y53050
X23810Y53050
X76190Y89450
X78730Y89450
X81270Y89450
X83810Y89450
X76140Y84750
X78680Y84750
X81220Y84750
X83760Y84750
X45790Y53600
X48330Y53600
X50870Y53600
X53410Y53600
X57390Y53600
X59930Y53600
X62470Y53600
X65010Y53600
X89260Y60600
X91800Y60600
X94340Y60600
X31070Y93830
X31070Y96370
X33610Y93830
X33610Y96370
X36150Y93830
X36150Y96370
X38690Y93830
X38690Y96370
X88630Y11630
X41230Y93830
X41230Y96370
X43770Y93830
X43770Y96370
X46310Y93830
X46310Y96370
X48850Y93830
X48850Y96370
X51390Y93830
X51390Y96370
X53930Y93830
X53930Y96370
X60670Y93830
X63210Y93830
X63210Y96370
X65750Y93830
X65750Y96370
X68290Y93830
X68290Y96370
X70830Y93830
X70830Y96370
X73370Y93830
X73370Y96370
X75910Y93830
X75910Y96370
X78450Y93830
X78450Y96370
X80990Y93830
X80990Y96370
X83530Y93830
X83530Y96370
X95550Y33570
X95550Y36110
X95550Y38650
X95550Y41190
X95550Y43730
X96310Y52970
X96310Y50430
X93770Y52970
X93770Y50430
X91230Y52970
X91230Y50430
X88690Y52970
X88690Y50430
X29370Y14790
X31910Y14790
X34450Y14790
X36990Y14790
X39530Y14790
X42070Y14790
X44610Y14790
X47150Y14790
X29350Y11270
X31890Y11270
X34430Y11270
X36970Y11270
X39510Y11270
X42050Y11270
X44590Y11270
X47130Y11270
X7720Y14840
X10260Y14840
X12800Y14840
X15340Y14840
X17880Y14840
X20420Y14840
X22960Y14840
X25500Y14840
X7720Y11430
X10260Y11430
X12800Y11430
X15340Y11430
X17880Y11430
X20420Y11430
X22960Y11430
X25500Y11430
X52070Y14950
X54610Y14950
X57150Y14950
X59690Y14950
X62230Y14950
X64770Y14950
X67310Y14950
X69850Y14950
X52020Y11340
X54560Y11340
X57100Y11340
X59640Y11340
X62180Y11340
X64720Y11340
X67260Y11340
X69800Y11340
X75930Y14940
X78470Y14940
X81010Y14940
X83550Y14940
X86090Y14940
X88630Y14940
X91170Y14940
X93710Y14940
X75930Y11630
X78470Y11630
X81010Y11630
X83550Y11630
X86090Y11630
X60670Y96370
X91170Y11630
X93710Y11630
X93600Y21510
X93600Y24050
X93600Y26590
X96900Y21560
X96900Y24100
X96900Y26640
X4250Y27550
X4250Y25010
T7
X63740Y3880
X66280Y3880
X87440Y6420
X89980Y3880
X89980Y6420
X66280Y6420
X79820Y3880
X11220Y6420
X79820Y6420
X82360Y3880
X84900Y3880
X84900Y6420
X87440Y3880
X9500Y62800
X3400Y62800
X6400Y58000
X58660Y3880
X33020Y3880
X33020Y6420
X35560Y3880
X35560Y6420
X38100Y3880
X38100Y6420
X40640Y3880
X40640Y6420
X43180Y3880
X43180Y6420
X11220Y3880
X82360Y6420
X13760Y3880
X13760Y6420
X16300Y3880
X16300Y6420
X18840Y3880
X18840Y6420
X21380Y3880
X21380Y6420
X56120Y3880
X56120Y6420
X58660Y6420
X61200Y3880
X61200Y6420
X63740Y6420
T8
X7410Y38450
X9410Y35950
X9410Y38450
X7410Y35950
T9
X93050Y92190
X93050Y87110
X93050Y89650
X93100Y76660
X93100Y79200
X93100Y81740
X93200Y66160
X93200Y68700
X93200Y71240
T10
X50975Y17975
X53350Y35300
X55450Y28650
X56650Y27800
X53700Y20750
X49900Y23350
X40150Y85700
X6700Y66150
X29950Y57350
X30350Y63100
X36550Y50350
X40300Y56600
X46050Y70750
X22350Y68550
X35650Y70650
X23950Y70200
X49500Y78950
X3700Y85800
X61250Y84550
X61250Y79000
X65500Y78850
X75250Y42000
X75550Y47000
X76550Y51050
X74300Y58100
X78650Y75600
X54050Y56000
X68600Y26650
X69850Y19550
X70750Y25500
X84900Y25550
X71900Y28150
X84850Y28150
X24300Y72600
X24850Y78800
X53050Y78900
X68450Y56200
X82700Y60150
X43050Y57700
X43050Y52519
X48100Y58200
X40600Y60800
X38700Y91800
X27400Y92050
X36100Y67800
X51250Y71250
X66350Y73850
X57900Y18450
X11400Y68250
X15200Y30300
X33250Y24500
X62650Y31150
X89800Y43800
X24750Y63800
X13500Y63350
X81500Y74650
X87600Y58600
X21400Y38150
X37000Y21800
X17950Y21000
X41550Y21700
X20350Y22700
X43750Y21500
X21750Y20800
X22960Y17240
X45350Y22150
X32400Y25900
X32350Y30950
X89150Y70950
X67600Y28850
X88050Y45800
X85550Y53100
X52850Y33350
X61400Y40400
X79800Y40200
X61350Y39050
X81150Y39000
X61250Y37900
X78400Y37900
X61150Y36800
X75850Y36850
X61250Y33150
X48850Y38900
X73350Y63350
X73500Y68000
X55500Y56200
X25800Y25900
X58000Y21150
X58000Y35650
X73600Y72700
X50750Y36700
M30