G04 EAGLE Gerber RS-274X export*
G75*
%MOMM*%
%FSLAX34Y34*%
%LPD*%
%INSoldermask Bottom*%
%IPPOS*%
%AMOC8*
5,1,8,0,0,1.08239X$1,22.5*%
G01*
%ADD10C,3.152400*%
%ADD11C,1.778000*%
%ADD12C,3.252400*%
%ADD13C,1.624400*%
%ADD14R,1.368400X1.368400*%
%ADD15C,1.368400*%
%ADD16C,1.752400*%
%ADD17P,1.924489X8X22.500000*%
%ADD18P,1.924489X8X202.500000*%
%ADD19C,1.940563*%
%ADD20C,3.454400*%
%ADD21C,2.152400*%
%ADD22C,2.265681*%


D10*
X22500Y22500D03*
X975000Y22500D03*
X975000Y972500D03*
X22500Y972500D03*
D11*
X293700Y156028D02*
X293700Y139772D01*
X319100Y139772D02*
X319100Y156028D01*
X344500Y156028D02*
X344500Y139772D01*
X369900Y139772D02*
X369900Y156028D01*
X395300Y156028D02*
X395300Y139772D01*
X420700Y139772D02*
X420700Y156028D01*
X446100Y156028D02*
X446100Y139772D01*
X471500Y139772D02*
X471500Y156028D01*
X293500Y120828D02*
X293500Y104572D01*
X318900Y104572D02*
X318900Y120828D01*
X344300Y120828D02*
X344300Y104572D01*
X369700Y104572D02*
X369700Y120828D01*
X395100Y120828D02*
X395100Y104572D01*
X420500Y104572D02*
X420500Y120828D01*
X445900Y120828D02*
X445900Y104572D01*
X471300Y104572D02*
X471300Y120828D01*
X77200Y140272D02*
X77200Y156528D01*
X102600Y156528D02*
X102600Y140272D01*
X128000Y140272D02*
X128000Y156528D01*
X153400Y156528D02*
X153400Y140272D01*
X178800Y140272D02*
X178800Y156528D01*
X204200Y156528D02*
X204200Y140272D01*
X229600Y140272D02*
X229600Y156528D01*
X255000Y156528D02*
X255000Y140272D01*
X77200Y122428D02*
X77200Y106172D01*
X102600Y106172D02*
X102600Y122428D01*
X128000Y122428D02*
X128000Y106172D01*
X153400Y106172D02*
X153400Y122428D01*
X178800Y122428D02*
X178800Y106172D01*
X204200Y106172D02*
X204200Y122428D01*
X229600Y122428D02*
X229600Y106172D01*
X255000Y106172D02*
X255000Y122428D01*
X520700Y141372D02*
X520700Y157628D01*
X546100Y157628D02*
X546100Y141372D01*
X571500Y141372D02*
X571500Y157628D01*
X596900Y157628D02*
X596900Y141372D01*
X622300Y141372D02*
X622300Y157628D01*
X647700Y157628D02*
X647700Y141372D01*
X673100Y141372D02*
X673100Y157628D01*
X698500Y157628D02*
X698500Y141372D01*
X520200Y121528D02*
X520200Y105272D01*
X545600Y105272D02*
X545600Y121528D01*
X571000Y121528D02*
X571000Y105272D01*
X596400Y105272D02*
X596400Y121528D01*
X621800Y121528D02*
X621800Y105272D01*
X647200Y105272D02*
X647200Y121528D01*
X672600Y121528D02*
X672600Y105272D01*
X698000Y105272D02*
X698000Y121528D01*
X759300Y141272D02*
X759300Y157528D01*
X784700Y157528D02*
X784700Y141272D01*
X810100Y141272D02*
X810100Y157528D01*
X835500Y157528D02*
X835500Y141272D01*
X860900Y141272D02*
X860900Y157528D01*
X886300Y157528D02*
X886300Y141272D01*
X911700Y141272D02*
X911700Y157528D01*
X937100Y157528D02*
X937100Y141272D01*
X759300Y124428D02*
X759300Y108172D01*
X784700Y108172D02*
X784700Y124428D01*
X810100Y124428D02*
X810100Y108172D01*
X835500Y108172D02*
X835500Y124428D01*
X860900Y124428D02*
X860900Y108172D01*
X886300Y108172D02*
X886300Y124428D01*
X911700Y124428D02*
X911700Y108172D01*
X937100Y108172D02*
X937100Y124428D01*
X944128Y215100D02*
X927872Y215100D01*
X927872Y240500D02*
X944128Y240500D01*
X944128Y265900D02*
X927872Y265900D01*
X960872Y215600D02*
X977128Y215600D01*
X977128Y241000D02*
X960872Y241000D01*
X960872Y266400D02*
X977128Y266400D01*
X50628Y275500D02*
X34372Y275500D01*
X34372Y250100D02*
X50628Y250100D01*
X50628Y224700D02*
X34372Y224700D01*
X34372Y199300D02*
X50628Y199300D01*
X50628Y173900D02*
X34372Y173900D01*
X34372Y148500D02*
X50628Y148500D01*
D12*
X47000Y432200D03*
X47000Y311800D03*
D13*
X94100Y384500D03*
X74100Y384500D03*
X94100Y359500D03*
X74100Y359500D03*
D11*
X365600Y526872D02*
X365600Y543128D01*
X340200Y543128D02*
X340200Y526872D01*
X314800Y526872D02*
X314800Y543128D01*
X289400Y543128D02*
X289400Y526872D01*
X161900Y522372D02*
X161900Y538628D01*
X187300Y538628D02*
X187300Y522372D01*
X212700Y522372D02*
X212700Y538628D01*
X238100Y538628D02*
X238100Y522372D01*
X761900Y886372D02*
X761900Y902628D01*
X787300Y902628D02*
X787300Y886372D01*
X812700Y886372D02*
X812700Y902628D01*
X838100Y902628D02*
X838100Y886372D01*
X761400Y855628D02*
X761400Y839372D01*
X786800Y839372D02*
X786800Y855628D01*
X812200Y855628D02*
X812200Y839372D01*
X837600Y839372D02*
X837600Y855628D01*
X457900Y544128D02*
X457900Y527872D01*
X483300Y527872D02*
X483300Y544128D01*
X508700Y544128D02*
X508700Y527872D01*
X534100Y527872D02*
X534100Y544128D01*
X573900Y544128D02*
X573900Y527872D01*
X599300Y527872D02*
X599300Y544128D01*
X624700Y544128D02*
X624700Y527872D01*
X650100Y527872D02*
X650100Y544128D01*
D14*
X930500Y871100D03*
D15*
X930500Y896500D03*
X930500Y921900D03*
D14*
X931000Y766600D03*
D15*
X931000Y792000D03*
X931000Y817400D03*
D14*
X932000Y661600D03*
D15*
X932000Y687000D03*
X932000Y712400D03*
D11*
X892600Y614128D02*
X892600Y597872D01*
X918000Y597872D02*
X918000Y614128D01*
X943400Y614128D02*
X943400Y597872D01*
D16*
X330200Y38800D03*
X330200Y64200D03*
X355600Y38800D03*
X355600Y64200D03*
X381000Y38800D03*
X381000Y64200D03*
X406400Y38800D03*
X406400Y64200D03*
X431800Y38800D03*
X431800Y64200D03*
X112200Y38800D03*
X112200Y64200D03*
X137600Y38800D03*
X137600Y64200D03*
X163000Y38800D03*
X163000Y64200D03*
X188400Y38800D03*
X188400Y64200D03*
X213800Y38800D03*
X213800Y64200D03*
X561200Y38800D03*
X561200Y64200D03*
X586600Y38800D03*
X586600Y64200D03*
X612000Y38800D03*
X612000Y64200D03*
X637400Y38800D03*
X637400Y64200D03*
X662800Y38800D03*
X662800Y64200D03*
X798200Y38800D03*
X798200Y64200D03*
X823600Y38800D03*
X823600Y64200D03*
X849000Y38800D03*
X849000Y64200D03*
X874400Y38800D03*
X874400Y64200D03*
X899800Y38800D03*
X899800Y64200D03*
D17*
X310700Y938300D03*
X310700Y963700D03*
X336100Y938300D03*
X336100Y963700D03*
X361500Y938300D03*
X361500Y963700D03*
X386900Y938300D03*
X386900Y963700D03*
X412300Y938300D03*
X412300Y963700D03*
X437700Y938300D03*
X437700Y963700D03*
X463100Y938300D03*
X463100Y963700D03*
X488500Y938300D03*
X488500Y963700D03*
X513900Y938300D03*
X513900Y963700D03*
X539300Y938300D03*
X539300Y963700D03*
X606700Y938300D03*
X606700Y963700D03*
X632100Y938300D03*
X632100Y963700D03*
X657500Y938300D03*
X657500Y963700D03*
X682900Y938300D03*
X682900Y963700D03*
X708300Y938300D03*
X708300Y963700D03*
X733700Y938300D03*
X733700Y963700D03*
X759100Y938300D03*
X759100Y963700D03*
X784500Y938300D03*
X784500Y963700D03*
X809900Y938300D03*
X809900Y963700D03*
X835300Y938300D03*
X835300Y963700D03*
D11*
X947372Y335700D02*
X963628Y335700D01*
X963628Y361100D02*
X947372Y361100D01*
X947372Y386500D02*
X963628Y386500D01*
X963628Y411900D02*
X947372Y411900D01*
X947372Y437300D02*
X963628Y437300D01*
D18*
X963100Y529700D03*
X963100Y504300D03*
X937700Y529700D03*
X937700Y504300D03*
X912300Y529700D03*
X912300Y504300D03*
X886900Y529700D03*
X886900Y504300D03*
D19*
X220400Y780659D02*
X220400Y798541D01*
X195000Y798541D02*
X195000Y780659D01*
X169600Y780659D02*
X169600Y798541D01*
D20*
X195000Y639740D03*
D21*
X95000Y638000D02*
X95000Y618000D01*
X34000Y618000D02*
X34000Y638000D01*
X54000Y580000D02*
X74000Y580000D01*
D22*
X53066Y484354D02*
X31934Y484354D01*
X31934Y534392D02*
X53066Y534392D01*
M02*
