G04 EAGLE Gerber RS-274X export*
G75*
%MOMM*%
%FSLAX34Y34*%
%LPD*%
%INSoldermask Top*%
%IPPOS*%
%AMOC8*
5,1,8,0,0,1.08239X$1,22.5*%
G01*
%ADD10C,3.152400*%
%ADD11R,1.652400X0.652400*%
%ADD12R,0.652400X1.652400*%
%ADD13C,1.778000*%
%ADD14R,1.452400X1.652400*%
%ADD15R,1.852400X1.152400*%
%ADD16C,3.252400*%
%ADD17C,1.624400*%
%ADD18R,2.652400X1.352400*%
%ADD19R,1.652400X1.452400*%
%ADD20R,1.352400X1.352400*%
%ADD21R,2.452400X1.752400*%
%ADD22R,1.368400X1.368400*%
%ADD23C,1.368400*%
%ADD24C,1.752400*%
%ADD25P,1.924489X8X22.500000*%
%ADD26P,1.924489X8X202.500000*%
%ADD27R,9.902400X12.352400*%
%ADD28R,3.652400X1.752400*%
%ADD29C,0.705719*%
%ADD30C,1.940563*%
%ADD31C,3.454400*%
%ADD32C,2.152400*%
%ADD33C,2.265681*%
%ADD34R,2.252400X5.752400*%
%ADD35R,1.452400X1.752400*%


D10*
X22500Y22500D03*
X975000Y22500D03*
X975000Y972500D03*
X22500Y972500D03*
D11*
X387900Y349300D03*
X387900Y341300D03*
X387900Y333300D03*
X387900Y325300D03*
X387900Y317300D03*
X387900Y309300D03*
X387900Y301300D03*
X387900Y293300D03*
X387900Y285300D03*
X387900Y277300D03*
X387900Y269300D03*
D12*
X405900Y251300D03*
X413900Y251300D03*
X421900Y251300D03*
X429900Y251300D03*
X437900Y251300D03*
X445900Y251300D03*
X453900Y251300D03*
X461900Y251300D03*
X469900Y251300D03*
X477900Y251300D03*
X485900Y251300D03*
D11*
X503900Y269300D03*
X503900Y277300D03*
X503900Y285300D03*
X503900Y293300D03*
X503900Y301300D03*
X503900Y309300D03*
X503900Y317300D03*
X503900Y325300D03*
X503900Y333300D03*
X503900Y341300D03*
X503900Y349300D03*
D12*
X485900Y367300D03*
X477900Y367300D03*
X469900Y367300D03*
X461900Y367300D03*
X453900Y367300D03*
X445900Y367300D03*
X437900Y367300D03*
X429900Y367300D03*
X421900Y367300D03*
X413900Y367300D03*
X405900Y367300D03*
D13*
X293700Y156028D02*
X293700Y139772D01*
X319100Y139772D02*
X319100Y156028D01*
X344500Y156028D02*
X344500Y139772D01*
X369900Y139772D02*
X369900Y156028D01*
X395300Y156028D02*
X395300Y139772D01*
X420700Y139772D02*
X420700Y156028D01*
X446100Y156028D02*
X446100Y139772D01*
X471500Y139772D02*
X471500Y156028D01*
X293500Y120828D02*
X293500Y104572D01*
X318900Y104572D02*
X318900Y120828D01*
X344300Y120828D02*
X344300Y104572D01*
X369700Y104572D02*
X369700Y120828D01*
X395100Y120828D02*
X395100Y104572D01*
X420500Y104572D02*
X420500Y120828D01*
X445900Y120828D02*
X445900Y104572D01*
X471300Y104572D02*
X471300Y120828D01*
X77200Y140272D02*
X77200Y156528D01*
X102600Y156528D02*
X102600Y140272D01*
X128000Y140272D02*
X128000Y156528D01*
X153400Y156528D02*
X153400Y140272D01*
X178800Y140272D02*
X178800Y156528D01*
X204200Y156528D02*
X204200Y140272D01*
X229600Y140272D02*
X229600Y156528D01*
X255000Y156528D02*
X255000Y140272D01*
X77200Y122428D02*
X77200Y106172D01*
X102600Y106172D02*
X102600Y122428D01*
X128000Y122428D02*
X128000Y106172D01*
X153400Y106172D02*
X153400Y122428D01*
X178800Y122428D02*
X178800Y106172D01*
X204200Y106172D02*
X204200Y122428D01*
X229600Y122428D02*
X229600Y106172D01*
X255000Y106172D02*
X255000Y122428D01*
X520700Y141372D02*
X520700Y157628D01*
X546100Y157628D02*
X546100Y141372D01*
X571500Y141372D02*
X571500Y157628D01*
X596900Y157628D02*
X596900Y141372D01*
X622300Y141372D02*
X622300Y157628D01*
X647700Y157628D02*
X647700Y141372D01*
X673100Y141372D02*
X673100Y157628D01*
X698500Y157628D02*
X698500Y141372D01*
X520200Y121528D02*
X520200Y105272D01*
X545600Y105272D02*
X545600Y121528D01*
X571000Y121528D02*
X571000Y105272D01*
X596400Y105272D02*
X596400Y121528D01*
X621800Y121528D02*
X621800Y105272D01*
X647200Y105272D02*
X647200Y121528D01*
X672600Y121528D02*
X672600Y105272D01*
X698000Y105272D02*
X698000Y121528D01*
X759300Y141272D02*
X759300Y157528D01*
X784700Y157528D02*
X784700Y141272D01*
X810100Y141272D02*
X810100Y157528D01*
X835500Y157528D02*
X835500Y141272D01*
X860900Y141272D02*
X860900Y157528D01*
X886300Y157528D02*
X886300Y141272D01*
X911700Y141272D02*
X911700Y157528D01*
X937100Y157528D02*
X937100Y141272D01*
X759300Y124428D02*
X759300Y108172D01*
X784700Y108172D02*
X784700Y124428D01*
X810100Y124428D02*
X810100Y108172D01*
X835500Y108172D02*
X835500Y124428D01*
X860900Y124428D02*
X860900Y108172D01*
X886300Y108172D02*
X886300Y124428D01*
X911700Y124428D02*
X911700Y108172D01*
X937100Y108172D02*
X937100Y124428D01*
D14*
X374700Y245200D03*
X355700Y245200D03*
D15*
X291000Y312300D03*
X291000Y350300D03*
X228000Y312300D03*
X228000Y350300D03*
D13*
X927872Y215100D02*
X944128Y215100D01*
X944128Y240500D02*
X927872Y240500D01*
X927872Y265900D02*
X944128Y265900D01*
X960872Y215600D02*
X977128Y215600D01*
X977128Y241000D02*
X960872Y241000D01*
X960872Y266400D02*
X977128Y266400D01*
X50628Y275500D02*
X34372Y275500D01*
X34372Y250100D02*
X50628Y250100D01*
X50628Y224700D02*
X34372Y224700D01*
X34372Y199300D02*
X50628Y199300D01*
X50628Y173900D02*
X34372Y173900D01*
X34372Y148500D02*
X50628Y148500D01*
D16*
X47000Y432200D03*
X47000Y311800D03*
D17*
X94100Y384500D03*
X74100Y384500D03*
X94100Y359500D03*
X74100Y359500D03*
D18*
X185000Y356500D03*
X185000Y381500D03*
X185000Y406500D03*
X130000Y356500D03*
X130000Y381500D03*
X130000Y406500D03*
X276500Y656000D03*
X276500Y631000D03*
X276500Y606000D03*
X331500Y656000D03*
X331500Y631000D03*
X331500Y606000D03*
X379000Y658000D03*
X379000Y633000D03*
X379000Y608000D03*
X434000Y658000D03*
X434000Y633000D03*
X434000Y608000D03*
X484500Y659500D03*
X484500Y634500D03*
X484500Y609500D03*
X539500Y659500D03*
X539500Y634500D03*
X539500Y609500D03*
X590500Y659500D03*
X590500Y634500D03*
X590500Y609500D03*
X645500Y659500D03*
X645500Y634500D03*
X645500Y609500D03*
X587500Y763500D03*
X587500Y738500D03*
X587500Y713500D03*
X642500Y763500D03*
X642500Y738500D03*
X642500Y713500D03*
X484500Y762500D03*
X484500Y737500D03*
X484500Y712500D03*
X539500Y762500D03*
X539500Y737500D03*
X539500Y712500D03*
X378500Y762000D03*
X378500Y737000D03*
X378500Y712000D03*
X433500Y762000D03*
X433500Y737000D03*
X433500Y712000D03*
X275500Y762000D03*
X275500Y737000D03*
X275500Y712000D03*
X330500Y762000D03*
X330500Y737000D03*
X330500Y712000D03*
D13*
X365600Y543128D02*
X365600Y526872D01*
X340200Y526872D02*
X340200Y543128D01*
X314800Y543128D02*
X314800Y526872D01*
X289400Y526872D02*
X289400Y543128D01*
X161900Y538628D02*
X161900Y522372D01*
X187300Y522372D02*
X187300Y538628D01*
X212700Y538628D02*
X212700Y522372D01*
X238100Y522372D02*
X238100Y538628D01*
D19*
X454500Y898000D03*
X454500Y879000D03*
X494500Y898000D03*
X494500Y879000D03*
X537500Y897500D03*
X537500Y878500D03*
X574500Y897500D03*
X574500Y878500D03*
X614500Y897500D03*
X614500Y878500D03*
X654500Y897500D03*
X654500Y878500D03*
X694500Y897500D03*
X694500Y878500D03*
X733500Y897500D03*
X733500Y878500D03*
D20*
X495500Y830500D03*
X495500Y809500D03*
X530000Y830500D03*
X530000Y809500D03*
X558500Y830500D03*
X558500Y809500D03*
X593000Y830500D03*
X593000Y809500D03*
X628500Y830500D03*
X628500Y809500D03*
X661000Y830500D03*
X661000Y809500D03*
X690500Y830500D03*
X690500Y809500D03*
X722500Y830500D03*
X722500Y809500D03*
D13*
X761900Y886372D02*
X761900Y902628D01*
X787300Y902628D02*
X787300Y886372D01*
X812700Y886372D02*
X812700Y902628D01*
X838100Y902628D02*
X838100Y886372D01*
X761400Y855628D02*
X761400Y839372D01*
X786800Y839372D02*
X786800Y855628D01*
X812200Y855628D02*
X812200Y839372D01*
X837600Y839372D02*
X837600Y855628D01*
D14*
X827000Y425000D03*
X808000Y425000D03*
X827000Y474500D03*
X808000Y474500D03*
X827000Y520500D03*
X808000Y520500D03*
X827000Y565500D03*
X808000Y565500D03*
X827000Y771500D03*
X808000Y771500D03*
X827000Y725000D03*
X808000Y725000D03*
X827000Y679500D03*
X808000Y679500D03*
X827000Y621000D03*
X808000Y621000D03*
D21*
X766500Y444500D03*
X703500Y444500D03*
X764500Y492000D03*
X701500Y492000D03*
X765000Y537000D03*
X702000Y537000D03*
X765000Y582500D03*
X702000Y582500D03*
X766000Y771500D03*
X703000Y771500D03*
X766000Y726000D03*
X703000Y726000D03*
X765000Y679000D03*
X702000Y679000D03*
X764000Y633000D03*
X701000Y633000D03*
D13*
X457900Y544128D02*
X457900Y527872D01*
X483300Y527872D02*
X483300Y544128D01*
X508700Y544128D02*
X508700Y527872D01*
X534100Y527872D02*
X534100Y544128D01*
X573900Y544128D02*
X573900Y527872D01*
X599300Y527872D02*
X599300Y544128D01*
X624700Y544128D02*
X624700Y527872D01*
X650100Y527872D02*
X650100Y544128D01*
D22*
X930500Y871100D03*
D23*
X930500Y896500D03*
X930500Y921900D03*
D22*
X931000Y766600D03*
D23*
X931000Y792000D03*
X931000Y817400D03*
D22*
X932000Y661600D03*
D23*
X932000Y687000D03*
X932000Y712400D03*
D13*
X892600Y614128D02*
X892600Y597872D01*
X918000Y597872D02*
X918000Y614128D01*
X943400Y614128D02*
X943400Y597872D01*
D24*
X330200Y38800D03*
X330200Y64200D03*
X355600Y38800D03*
X355600Y64200D03*
X381000Y38800D03*
X381000Y64200D03*
X406400Y38800D03*
X406400Y64200D03*
X431800Y38800D03*
X431800Y64200D03*
X112200Y38800D03*
X112200Y64200D03*
X137600Y38800D03*
X137600Y64200D03*
X163000Y38800D03*
X163000Y64200D03*
X188400Y38800D03*
X188400Y64200D03*
X213800Y38800D03*
X213800Y64200D03*
X561200Y38800D03*
X561200Y64200D03*
X586600Y38800D03*
X586600Y64200D03*
X612000Y38800D03*
X612000Y64200D03*
X637400Y38800D03*
X637400Y64200D03*
X662800Y38800D03*
X662800Y64200D03*
X798200Y38800D03*
X798200Y64200D03*
X823600Y38800D03*
X823600Y64200D03*
X849000Y38800D03*
X849000Y64200D03*
X874400Y38800D03*
X874400Y64200D03*
X899800Y38800D03*
X899800Y64200D03*
D25*
X310700Y938300D03*
X310700Y963700D03*
X336100Y938300D03*
X336100Y963700D03*
X361500Y938300D03*
X361500Y963700D03*
X386900Y938300D03*
X386900Y963700D03*
X412300Y938300D03*
X412300Y963700D03*
X437700Y938300D03*
X437700Y963700D03*
X463100Y938300D03*
X463100Y963700D03*
X488500Y938300D03*
X488500Y963700D03*
X513900Y938300D03*
X513900Y963700D03*
X539300Y938300D03*
X539300Y963700D03*
X606700Y938300D03*
X606700Y963700D03*
X632100Y938300D03*
X632100Y963700D03*
X657500Y938300D03*
X657500Y963700D03*
X682900Y938300D03*
X682900Y963700D03*
X708300Y938300D03*
X708300Y963700D03*
X733700Y938300D03*
X733700Y963700D03*
X759100Y938300D03*
X759100Y963700D03*
X784500Y938300D03*
X784500Y963700D03*
X809900Y938300D03*
X809900Y963700D03*
X835300Y938300D03*
X835300Y963700D03*
D13*
X947372Y335700D02*
X963628Y335700D01*
X963628Y361100D02*
X947372Y361100D01*
X947372Y386500D02*
X963628Y386500D01*
X963628Y411900D02*
X947372Y411900D01*
X947372Y437300D02*
X963628Y437300D01*
D14*
X918000Y560500D03*
X899000Y560500D03*
X917500Y474500D03*
X898500Y474500D03*
D26*
X963100Y529700D03*
X963100Y504300D03*
X937700Y529700D03*
X937700Y504300D03*
X912300Y529700D03*
X912300Y504300D03*
X886900Y529700D03*
X886900Y504300D03*
D27*
X178750Y918500D03*
D28*
X76000Y943900D03*
X76000Y893100D03*
D29*
X89766Y729234D02*
X126234Y729234D01*
X126234Y712766D01*
X89766Y712766D01*
X89766Y729234D01*
X89766Y719470D02*
X126234Y719470D01*
X126234Y726174D02*
X89766Y726174D01*
X53234Y729234D02*
X16766Y729234D01*
X53234Y729234D02*
X53234Y712766D01*
X16766Y712766D01*
X16766Y729234D01*
X16766Y719470D02*
X53234Y719470D01*
X53234Y726174D02*
X16766Y726174D01*
X89766Y816734D02*
X126234Y816734D01*
X126234Y800266D01*
X89766Y800266D01*
X89766Y816734D01*
X89766Y806970D02*
X126234Y806970D01*
X126234Y813674D02*
X89766Y813674D01*
X53234Y816734D02*
X16766Y816734D01*
X53234Y816734D02*
X53234Y800266D01*
X16766Y800266D01*
X16766Y816734D01*
X16766Y806970D02*
X53234Y806970D01*
X53234Y813674D02*
X16766Y813674D01*
D30*
X220400Y798541D02*
X220400Y780659D01*
X195000Y780659D02*
X195000Y798541D01*
X169600Y798541D02*
X169600Y780659D01*
D31*
X195000Y639740D03*
D32*
X95000Y638000D02*
X95000Y618000D01*
X34000Y618000D02*
X34000Y638000D01*
X54000Y580000D02*
X74000Y580000D01*
D33*
X53066Y484354D02*
X31934Y484354D01*
X31934Y534392D02*
X53066Y534392D01*
D29*
X224266Y830266D02*
X260734Y830266D01*
X224266Y830266D02*
X224266Y846734D01*
X260734Y846734D01*
X260734Y830266D01*
X260734Y836970D02*
X224266Y836970D01*
X224266Y843674D02*
X260734Y843674D01*
X297266Y830266D02*
X333734Y830266D01*
X297266Y830266D02*
X297266Y846734D01*
X333734Y846734D01*
X333734Y830266D01*
X333734Y836970D02*
X297266Y836970D01*
X297266Y843674D02*
X333734Y843674D01*
X422266Y847234D02*
X458734Y847234D01*
X458734Y830766D01*
X422266Y830766D01*
X422266Y847234D01*
X422266Y837470D02*
X458734Y837470D01*
X458734Y844174D02*
X422266Y844174D01*
X385734Y847234D02*
X349266Y847234D01*
X385734Y847234D02*
X385734Y830766D01*
X349266Y830766D01*
X349266Y847234D01*
X349266Y837470D02*
X385734Y837470D01*
X385734Y844174D02*
X349266Y844174D01*
D14*
X277500Y470000D03*
X258500Y470000D03*
X319500Y570000D03*
X338500Y570000D03*
D19*
X331000Y486000D03*
X331000Y467000D03*
X403500Y548000D03*
X403500Y529000D03*
X148500Y571500D03*
X148500Y590500D03*
X179000Y572000D03*
X179000Y591000D03*
X212000Y571500D03*
X212000Y590500D03*
X241000Y571500D03*
X241000Y590500D03*
D34*
X555000Y241000D03*
X555000Y336000D03*
D35*
X541000Y186500D03*
X561000Y186500D03*
X523500Y383000D03*
X543500Y383000D03*
M02*
