G04 EAGLE Gerber RS-274X export*
G75*
%MOMM*%
%FSLAX34Y34*%
%LPD*%
%IN*%
%IPPOS*%
%AMOC8*
5,1,8,0,0,1.08239X$1,22.5*%
G01*
%ADD10C,0.254000*%


D10*
X1800Y1800D02*
X1089900Y1800D01*
X1089900Y984100D01*
X1800Y984100D01*
X1800Y1800D01*
X77500Y39427D02*
X77425Y38284D01*
X77276Y37148D01*
X77052Y36024D01*
X76755Y34917D01*
X76387Y33832D01*
X75949Y32774D01*
X75442Y31746D01*
X74869Y30754D01*
X74232Y29801D01*
X73535Y28892D01*
X72779Y28031D01*
X71969Y27221D01*
X71108Y26465D01*
X70199Y25768D01*
X69246Y25131D01*
X68254Y24558D01*
X67226Y24051D01*
X66168Y23613D01*
X65083Y23245D01*
X63976Y22948D01*
X62852Y22725D01*
X61716Y22575D01*
X60573Y22500D01*
X59427Y22500D01*
X58284Y22575D01*
X57148Y22725D01*
X56024Y22948D01*
X54917Y23245D01*
X53832Y23613D01*
X52774Y24051D01*
X51746Y24558D01*
X50754Y25131D01*
X49801Y25768D01*
X48892Y26465D01*
X48031Y27221D01*
X47221Y28031D01*
X46465Y28892D01*
X45768Y29801D01*
X45131Y30754D01*
X44558Y31746D01*
X44051Y32774D01*
X43613Y33832D01*
X43245Y34917D01*
X42948Y36024D01*
X42725Y37148D01*
X42575Y38284D01*
X42500Y39427D01*
X42500Y40573D01*
X42575Y41716D01*
X42725Y42852D01*
X42948Y43976D01*
X43245Y45083D01*
X43613Y46168D01*
X44051Y47226D01*
X44558Y48254D01*
X45131Y49246D01*
X45768Y50199D01*
X46465Y51108D01*
X47221Y51969D01*
X48031Y52779D01*
X48892Y53535D01*
X49801Y54232D01*
X50754Y54869D01*
X51746Y55442D01*
X52774Y55949D01*
X53832Y56387D01*
X54917Y56755D01*
X56024Y57052D01*
X57148Y57276D01*
X58284Y57425D01*
X59427Y57500D01*
X60573Y57500D01*
X61716Y57425D01*
X62852Y57276D01*
X63976Y57052D01*
X65083Y56755D01*
X66168Y56387D01*
X67226Y55949D01*
X68254Y55442D01*
X69246Y54869D01*
X70199Y54232D01*
X71108Y53535D01*
X71969Y52779D01*
X72779Y51969D01*
X73535Y51108D01*
X74232Y50199D01*
X74869Y49246D01*
X75442Y48254D01*
X75949Y47226D01*
X76387Y46168D01*
X76755Y45083D01*
X77052Y43976D01*
X77276Y42852D01*
X77425Y41716D01*
X77500Y40573D01*
X77500Y39427D01*
X1015000Y38464D02*
X1014924Y37396D01*
X1014771Y36335D01*
X1014543Y35288D01*
X1014241Y34260D01*
X1013867Y33256D01*
X1013422Y32281D01*
X1012908Y31341D01*
X1012329Y30440D01*
X1011687Y29582D01*
X1010985Y28772D01*
X1010228Y28015D01*
X1009418Y27313D01*
X1008560Y26671D01*
X1007659Y26092D01*
X1006719Y25578D01*
X1005744Y25133D01*
X1004740Y24759D01*
X1003712Y24457D01*
X1002665Y24229D01*
X1001604Y24076D01*
X1000536Y24000D01*
X999464Y24000D01*
X998396Y24076D01*
X997335Y24229D01*
X996288Y24457D01*
X995260Y24759D01*
X994256Y25133D01*
X993281Y25578D01*
X992341Y26092D01*
X991440Y26671D01*
X990582Y27313D01*
X989772Y28015D01*
X989015Y28772D01*
X988313Y29582D01*
X987671Y30440D01*
X987092Y31341D01*
X986578Y32281D01*
X986133Y33256D01*
X985759Y34260D01*
X985457Y35288D01*
X985229Y36335D01*
X985076Y37396D01*
X985000Y38464D01*
X985000Y39536D01*
X985076Y40604D01*
X985229Y41665D01*
X985457Y42712D01*
X985759Y43740D01*
X986133Y44744D01*
X986578Y45719D01*
X987092Y46659D01*
X987671Y47560D01*
X988313Y48418D01*
X989015Y49228D01*
X989772Y49985D01*
X990582Y50687D01*
X991440Y51329D01*
X992341Y51908D01*
X993281Y52422D01*
X994256Y52867D01*
X995260Y53241D01*
X996288Y53543D01*
X997335Y53771D01*
X998396Y53924D01*
X999464Y54000D01*
X1000536Y54000D01*
X1001604Y53924D01*
X1002665Y53771D01*
X1003712Y53543D01*
X1004740Y53241D01*
X1005744Y52867D01*
X1006719Y52422D01*
X1007659Y51908D01*
X1008560Y51329D01*
X1009418Y50687D01*
X1010228Y49985D01*
X1010985Y49228D01*
X1011687Y48418D01*
X1012329Y47560D01*
X1012908Y46659D01*
X1013422Y45719D01*
X1013867Y44744D01*
X1014241Y43740D01*
X1014543Y42712D01*
X1014771Y41665D01*
X1014924Y40604D01*
X1015000Y39536D01*
X1015000Y38464D01*
X1017500Y929427D02*
X1017425Y928284D01*
X1017276Y927148D01*
X1017052Y926024D01*
X1016755Y924917D01*
X1016387Y923832D01*
X1015949Y922774D01*
X1015442Y921746D01*
X1014869Y920754D01*
X1014232Y919801D01*
X1013535Y918892D01*
X1012779Y918031D01*
X1011969Y917221D01*
X1011108Y916465D01*
X1010199Y915768D01*
X1009246Y915131D01*
X1008254Y914558D01*
X1007226Y914051D01*
X1006168Y913613D01*
X1005083Y913245D01*
X1003976Y912948D01*
X1002852Y912725D01*
X1001716Y912575D01*
X1000573Y912500D01*
X999427Y912500D01*
X998284Y912575D01*
X997148Y912725D01*
X996024Y912948D01*
X994917Y913245D01*
X993832Y913613D01*
X992774Y914051D01*
X991746Y914558D01*
X990754Y915131D01*
X989801Y915768D01*
X988892Y916465D01*
X988031Y917221D01*
X987221Y918031D01*
X986465Y918892D01*
X985768Y919801D01*
X985131Y920754D01*
X984558Y921746D01*
X984051Y922774D01*
X983613Y923832D01*
X983245Y924917D01*
X982948Y926024D01*
X982725Y927148D01*
X982575Y928284D01*
X982500Y929427D01*
X982500Y930573D01*
X982575Y931716D01*
X982725Y932852D01*
X982948Y933976D01*
X983245Y935083D01*
X983613Y936168D01*
X984051Y937226D01*
X984558Y938254D01*
X985131Y939246D01*
X985768Y940199D01*
X986465Y941108D01*
X987221Y941969D01*
X988031Y942779D01*
X988892Y943535D01*
X989801Y944232D01*
X990754Y944869D01*
X991746Y945442D01*
X992774Y945949D01*
X993832Y946387D01*
X994917Y946755D01*
X996024Y947052D01*
X997148Y947276D01*
X998284Y947425D01*
X999427Y947500D01*
X1000573Y947500D01*
X1001716Y947425D01*
X1002852Y947276D01*
X1003976Y947052D01*
X1005083Y946755D01*
X1006168Y946387D01*
X1007226Y945949D01*
X1008254Y945442D01*
X1009246Y944869D01*
X1010199Y944232D01*
X1011108Y943535D01*
X1011969Y942779D01*
X1012779Y941969D01*
X1013535Y941108D01*
X1014232Y940199D01*
X1014869Y939246D01*
X1015442Y938254D01*
X1015949Y937226D01*
X1016387Y936168D01*
X1016755Y935083D01*
X1017052Y933976D01*
X1017276Y932852D01*
X1017425Y931716D01*
X1017500Y930573D01*
X1017500Y929427D01*
X77500Y929427D02*
X77425Y928284D01*
X77276Y927148D01*
X77052Y926024D01*
X76755Y924917D01*
X76387Y923832D01*
X75949Y922774D01*
X75442Y921746D01*
X74869Y920754D01*
X74232Y919801D01*
X73535Y918892D01*
X72779Y918031D01*
X71969Y917221D01*
X71108Y916465D01*
X70199Y915768D01*
X69246Y915131D01*
X68254Y914558D01*
X67226Y914051D01*
X66168Y913613D01*
X65083Y913245D01*
X63976Y912948D01*
X62852Y912725D01*
X61716Y912575D01*
X60573Y912500D01*
X59427Y912500D01*
X58284Y912575D01*
X57148Y912725D01*
X56024Y912948D01*
X54917Y913245D01*
X53832Y913613D01*
X52774Y914051D01*
X51746Y914558D01*
X50754Y915131D01*
X49801Y915768D01*
X48892Y916465D01*
X48031Y917221D01*
X47221Y918031D01*
X46465Y918892D01*
X45768Y919801D01*
X45131Y920754D01*
X44558Y921746D01*
X44051Y922774D01*
X43613Y923832D01*
X43245Y924917D01*
X42948Y926024D01*
X42725Y927148D01*
X42575Y928284D01*
X42500Y929427D01*
X42500Y930573D01*
X42575Y931716D01*
X42725Y932852D01*
X42948Y933976D01*
X43245Y935083D01*
X43613Y936168D01*
X44051Y937226D01*
X44558Y938254D01*
X45131Y939246D01*
X45768Y940199D01*
X46465Y941108D01*
X47221Y941969D01*
X48031Y942779D01*
X48892Y943535D01*
X49801Y944232D01*
X50754Y944869D01*
X51746Y945442D01*
X52774Y945949D01*
X53832Y946387D01*
X54917Y946755D01*
X56024Y947052D01*
X57148Y947276D01*
X58284Y947425D01*
X59427Y947500D01*
X60573Y947500D01*
X61716Y947425D01*
X62852Y947276D01*
X63976Y947052D01*
X65083Y946755D01*
X66168Y946387D01*
X67226Y945949D01*
X68254Y945442D01*
X69246Y944869D01*
X70199Y944232D01*
X71108Y943535D01*
X71969Y942779D01*
X72779Y941969D01*
X73535Y941108D01*
X74232Y940199D01*
X74869Y939246D01*
X75442Y938254D01*
X75949Y937226D01*
X76387Y936168D01*
X76755Y935083D01*
X77052Y933976D01*
X77276Y932852D01*
X77425Y931716D01*
X77500Y930573D01*
X77500Y929427D01*
X419186Y150500D02*
X420254Y150424D01*
X421315Y150271D01*
X422362Y150043D01*
X423390Y149741D01*
X424394Y149367D01*
X425369Y148922D01*
X426309Y148408D01*
X427210Y147829D01*
X428068Y147187D01*
X428878Y146485D01*
X429635Y145728D01*
X430337Y144918D01*
X430979Y144060D01*
X431558Y143159D01*
X432072Y142219D01*
X432517Y141244D01*
X432891Y140240D01*
X433193Y139212D01*
X433421Y138165D01*
X433574Y137104D01*
X433650Y136036D01*
X433650Y134964D01*
X433574Y133896D01*
X433421Y132835D01*
X433193Y131788D01*
X432891Y130760D01*
X432517Y129756D01*
X432072Y128781D01*
X431558Y127841D01*
X430979Y126940D01*
X430337Y126082D01*
X429635Y125272D01*
X428878Y124515D01*
X428068Y123813D01*
X427210Y123171D01*
X426309Y122592D01*
X425369Y122078D01*
X424394Y121633D01*
X423390Y121259D01*
X422362Y120957D01*
X421315Y120729D01*
X420254Y120576D01*
X419186Y120500D01*
X418114Y120500D01*
X417046Y120576D01*
X415985Y120729D01*
X414938Y120957D01*
X413910Y121259D01*
X412906Y121633D01*
X411931Y122078D01*
X410991Y122592D01*
X410090Y123171D01*
X409232Y123813D01*
X408422Y124515D01*
X407665Y125272D01*
X406963Y126082D01*
X406321Y126940D01*
X405742Y127841D01*
X405228Y128781D01*
X404783Y129756D01*
X404409Y130760D01*
X404107Y131788D01*
X403879Y132835D01*
X403726Y133896D01*
X403650Y134964D01*
X403650Y136036D01*
X403726Y137104D01*
X403879Y138165D01*
X404107Y139212D01*
X404409Y140240D01*
X404783Y141244D01*
X405228Y142219D01*
X405742Y143159D01*
X406321Y144060D01*
X406963Y144918D01*
X407665Y145728D01*
X408422Y146485D01*
X409232Y147187D01*
X410090Y147829D01*
X410991Y148408D01*
X411931Y148922D01*
X412906Y149367D01*
X413910Y149741D01*
X414938Y150043D01*
X415985Y150271D01*
X417046Y150424D01*
X418114Y150500D01*
X419186Y150500D01*
X419186Y395600D02*
X420254Y395524D01*
X421315Y395371D01*
X422362Y395143D01*
X423390Y394841D01*
X424394Y394467D01*
X425369Y394022D01*
X426309Y393508D01*
X427210Y392929D01*
X428068Y392287D01*
X428878Y391585D01*
X429635Y390828D01*
X430337Y390018D01*
X430979Y389160D01*
X431558Y388259D01*
X432072Y387319D01*
X432517Y386344D01*
X432891Y385340D01*
X433193Y384312D01*
X433421Y383265D01*
X433574Y382204D01*
X433650Y381136D01*
X433650Y380064D01*
X433574Y378996D01*
X433421Y377935D01*
X433193Y376888D01*
X432891Y375860D01*
X432517Y374856D01*
X432072Y373881D01*
X431558Y372941D01*
X430979Y372040D01*
X430337Y371182D01*
X429635Y370372D01*
X428878Y369615D01*
X428068Y368913D01*
X427210Y368271D01*
X426309Y367692D01*
X425369Y367178D01*
X424394Y366733D01*
X423390Y366359D01*
X422362Y366057D01*
X421315Y365829D01*
X420254Y365676D01*
X419186Y365600D01*
X418114Y365600D01*
X417046Y365676D01*
X415985Y365829D01*
X414938Y366057D01*
X413910Y366359D01*
X412906Y366733D01*
X411931Y367178D01*
X410991Y367692D01*
X410090Y368271D01*
X409232Y368913D01*
X408422Y369615D01*
X407665Y370372D01*
X406963Y371182D01*
X406321Y372040D01*
X405742Y372941D01*
X405228Y373881D01*
X404783Y374856D01*
X404409Y375860D01*
X404107Y376888D01*
X403879Y377935D01*
X403726Y378996D01*
X403650Y380064D01*
X403650Y381136D01*
X403726Y382204D01*
X403879Y383265D01*
X404107Y384312D01*
X404409Y385340D01*
X404783Y386344D01*
X405228Y387319D01*
X405742Y388259D01*
X406321Y389160D01*
X406963Y390018D01*
X407665Y390828D01*
X408422Y391585D01*
X409232Y392287D01*
X410090Y392929D01*
X410991Y393508D01*
X411931Y394022D01*
X412906Y394467D01*
X413910Y394841D01*
X414938Y395143D01*
X415985Y395371D01*
X417046Y395524D01*
X418114Y395600D01*
X419186Y395600D01*
X-50314Y395600D02*
X-49246Y395524D01*
X-48185Y395371D01*
X-47138Y395143D01*
X-46110Y394841D01*
X-45106Y394467D01*
X-44131Y394022D01*
X-43191Y393508D01*
X-42290Y392929D01*
X-41432Y392287D01*
X-40622Y391585D01*
X-39865Y390828D01*
X-39163Y390018D01*
X-38521Y389160D01*
X-37942Y388259D01*
X-37428Y387319D01*
X-36983Y386344D01*
X-36609Y385340D01*
X-36307Y384312D01*
X-36079Y383265D01*
X-35926Y382204D01*
X-35850Y381136D01*
X-35850Y380064D01*
X-35926Y378996D01*
X-36079Y377935D01*
X-36307Y376888D01*
X-36609Y375860D01*
X-36983Y374856D01*
X-37428Y373881D01*
X-37942Y372941D01*
X-38521Y372040D01*
X-39163Y371182D01*
X-39865Y370372D01*
X-40622Y369615D01*
X-41432Y368913D01*
X-42290Y368271D01*
X-43191Y367692D01*
X-44131Y367178D01*
X-45106Y366733D01*
X-46110Y366359D01*
X-47138Y366057D01*
X-48185Y365829D01*
X-49246Y365676D01*
X-50314Y365600D01*
X-51386Y365600D01*
X-52454Y365676D01*
X-53515Y365829D01*
X-54562Y366057D01*
X-55590Y366359D01*
X-56594Y366733D01*
X-57569Y367178D01*
X-58509Y367692D01*
X-59410Y368271D01*
X-60268Y368913D01*
X-61078Y369615D01*
X-61835Y370372D01*
X-62537Y371182D01*
X-63179Y372040D01*
X-63758Y372941D01*
X-64272Y373881D01*
X-64717Y374856D01*
X-65091Y375860D01*
X-65393Y376888D01*
X-65621Y377935D01*
X-65774Y378996D01*
X-65850Y380064D01*
X-65850Y381136D01*
X-65774Y382204D01*
X-65621Y383265D01*
X-65393Y384312D01*
X-65091Y385340D01*
X-64717Y386344D01*
X-64272Y387319D01*
X-63758Y388259D01*
X-63179Y389160D01*
X-62537Y390018D01*
X-61835Y390828D01*
X-61078Y391585D01*
X-60268Y392287D01*
X-59410Y392929D01*
X-58509Y393508D01*
X-57569Y394022D01*
X-56594Y394467D01*
X-55590Y394841D01*
X-54562Y395143D01*
X-53515Y395371D01*
X-52454Y395524D01*
X-51386Y395600D01*
X-50314Y395600D01*
X-50314Y150500D02*
X-49246Y150424D01*
X-48185Y150271D01*
X-47138Y150043D01*
X-46110Y149741D01*
X-45106Y149367D01*
X-44131Y148922D01*
X-43191Y148408D01*
X-42290Y147829D01*
X-41432Y147187D01*
X-40622Y146485D01*
X-39865Y145728D01*
X-39163Y144918D01*
X-38521Y144060D01*
X-37942Y143159D01*
X-37428Y142219D01*
X-36983Y141244D01*
X-36609Y140240D01*
X-36307Y139212D01*
X-36079Y138165D01*
X-35926Y137104D01*
X-35850Y136036D01*
X-35850Y134964D01*
X-35926Y133896D01*
X-36079Y132835D01*
X-36307Y131788D01*
X-36609Y130760D01*
X-36983Y129756D01*
X-37428Y128781D01*
X-37942Y127841D01*
X-38521Y126940D01*
X-39163Y126082D01*
X-39865Y125272D01*
X-40622Y124515D01*
X-41432Y123813D01*
X-42290Y123171D01*
X-43191Y122592D01*
X-44131Y122078D01*
X-45106Y121633D01*
X-46110Y121259D01*
X-47138Y120957D01*
X-48185Y120729D01*
X-49246Y120576D01*
X-50314Y120500D01*
X-51386Y120500D01*
X-52454Y120576D01*
X-53515Y120729D01*
X-54562Y120957D01*
X-55590Y121259D01*
X-56594Y121633D01*
X-57569Y122078D01*
X-58509Y122592D01*
X-59410Y123171D01*
X-60268Y123813D01*
X-61078Y124515D01*
X-61835Y125272D01*
X-62537Y126082D01*
X-63179Y126940D01*
X-63758Y127841D01*
X-64272Y128781D01*
X-64717Y129756D01*
X-65091Y130760D01*
X-65393Y131788D01*
X-65621Y132835D01*
X-65774Y133896D01*
X-65850Y134964D01*
X-65850Y136036D01*
X-65774Y137104D01*
X-65621Y138165D01*
X-65393Y139212D01*
X-65091Y140240D01*
X-64717Y141244D01*
X-64272Y142219D01*
X-63758Y143159D01*
X-63179Y144060D01*
X-62537Y144918D01*
X-61835Y145728D01*
X-61078Y146485D01*
X-60268Y147187D01*
X-59410Y147829D01*
X-58509Y148408D01*
X-57569Y148922D01*
X-56594Y149367D01*
X-55590Y149741D01*
X-54562Y150043D01*
X-53515Y150271D01*
X-52454Y150424D01*
X-51386Y150500D01*
X-50314Y150500D01*
M02*
