G04 EAGLE Gerber RS-274X export*
G75*
%MOMM*%
%FSLAX34Y34*%
%LPD*%
%INSoldermask Bottom*%
%IPPOS*%
%AMOC8*
5,1,8,0,0,1.08239X$1,22.5*%
G01*
%ADD10C,3.703200*%
%ADD11C,3.203200*%
%ADD12C,1.727200*%
%ADD13R,1.511200X1.511200*%
%ADD14C,1.511200*%
%ADD15C,1.524000*%
%ADD16R,2.183200X2.183200*%
%ADD17C,2.138200*%
%ADD18C,2.183200*%
%ADD19C,2.184400*%
%ADD20R,2.203200X2.203200*%
%ADD21C,2.203200*%
%ADD22C,1.503200*%


D10*
X60000Y40000D03*
D11*
X1000000Y39000D03*
D10*
X1000000Y930000D03*
X60000Y930000D03*
D12*
X504700Y137920D02*
X504700Y122680D01*
X530100Y122680D02*
X530100Y137920D01*
X555500Y137920D02*
X555500Y122680D01*
X580900Y122680D02*
X580900Y137920D01*
X606300Y137920D02*
X606300Y122680D01*
X631700Y122680D02*
X631700Y137920D01*
D13*
X629100Y221500D03*
D14*
X589100Y221500D03*
D15*
X561904Y513500D02*
X548696Y513500D01*
X548696Y488100D02*
X561904Y488100D01*
X561904Y361100D02*
X548696Y361100D01*
X548696Y335700D02*
X561904Y335700D01*
X561904Y462700D02*
X548696Y462700D01*
X548696Y437300D02*
X561904Y437300D01*
X561904Y386500D02*
X548696Y386500D01*
X548696Y411900D02*
X561904Y411900D01*
X561904Y310300D02*
X548696Y310300D01*
X624896Y310300D02*
X638104Y310300D01*
X638104Y335700D02*
X624896Y335700D01*
X624896Y361100D02*
X638104Y361100D01*
X638104Y386500D02*
X624896Y386500D01*
X624896Y411900D02*
X638104Y411900D01*
X638104Y437300D02*
X624896Y437300D01*
X624896Y462700D02*
X638104Y462700D01*
X638104Y488100D02*
X624896Y488100D01*
X624896Y513500D02*
X638104Y513500D01*
D16*
X410000Y788700D03*
D17*
X350000Y808700D03*
D18*
X290000Y788700D03*
X290000Y666700D03*
X410000Y666700D03*
D16*
X591600Y790500D03*
D17*
X531600Y810500D03*
D18*
X471600Y790500D03*
X471600Y668500D03*
X591600Y668500D03*
D16*
X774700Y789300D03*
D17*
X714700Y809300D03*
D18*
X654700Y789300D03*
X654700Y667300D03*
X774700Y667300D03*
D16*
X854700Y465400D03*
D17*
X874700Y525400D03*
D18*
X854700Y585400D03*
X732700Y585400D03*
X732700Y465400D03*
D16*
X855900Y284100D03*
D17*
X875900Y344100D03*
D18*
X855900Y404100D03*
X733900Y404100D03*
X733900Y284100D03*
D16*
X861300Y92000D03*
D17*
X881300Y152000D03*
D18*
X861300Y212000D03*
X739300Y212000D03*
X739300Y92000D03*
D19*
X297562Y918394D02*
X297562Y938206D01*
X347600Y938206D02*
X347600Y918394D01*
X397638Y918394D02*
X397638Y938206D01*
X476962Y933406D02*
X476962Y913594D01*
X527000Y913594D02*
X527000Y933406D01*
X577038Y933406D02*
X577038Y913594D01*
X655962Y912994D02*
X655962Y932806D01*
X706000Y932806D02*
X706000Y912994D01*
X756038Y912994D02*
X756038Y932806D01*
X998794Y593638D02*
X1018606Y593638D01*
X1018606Y543600D02*
X998794Y543600D01*
X998794Y493562D02*
X1018606Y493562D01*
X1019806Y399638D02*
X999994Y399638D01*
X999994Y349600D02*
X1019806Y349600D01*
X1019806Y299562D02*
X999994Y299562D01*
X1004794Y205038D02*
X1024606Y205038D01*
X1024606Y155000D02*
X1004794Y155000D01*
X1004794Y104962D02*
X1024606Y104962D01*
D20*
X28750Y131300D03*
D21*
X54150Y131300D03*
X79550Y131300D03*
X104950Y131300D03*
X130350Y131300D03*
X155750Y131300D03*
X181150Y131300D03*
X206550Y131300D03*
X231950Y131300D03*
X257350Y131300D03*
X282750Y131300D03*
X308150Y131300D03*
X333550Y131300D03*
X358950Y131300D03*
X384350Y131300D03*
X28750Y385300D03*
X54150Y385300D03*
X79550Y385300D03*
X104950Y385300D03*
X130350Y385300D03*
X155750Y385300D03*
X181150Y385300D03*
X206550Y385300D03*
X231950Y385300D03*
X257350Y385300D03*
X282750Y385300D03*
X308150Y385300D03*
X333550Y385300D03*
X358950Y385300D03*
X384350Y385300D03*
D11*
X418650Y135500D03*
X418650Y380600D03*
X-50850Y380600D03*
X-50850Y135500D03*
D19*
X52194Y818654D02*
X72006Y818654D01*
X72006Y868692D02*
X52194Y868692D01*
D12*
X48180Y542200D02*
X63420Y542200D01*
X63420Y567600D02*
X48180Y567600D01*
X48180Y593000D02*
X63420Y593000D01*
X62220Y694000D02*
X46980Y694000D01*
X46980Y719400D02*
X62220Y719400D01*
X62220Y744800D02*
X46980Y744800D01*
X138400Y61620D02*
X138400Y46380D01*
X163800Y46380D02*
X163800Y61620D01*
X189200Y61620D02*
X189200Y46380D01*
X268600Y46380D02*
X268600Y61620D01*
X294000Y61620D02*
X294000Y46380D01*
X319400Y46380D02*
X319400Y61620D01*
D22*
X922200Y54600D03*
X922200Y637200D03*
X891600Y844800D03*
X423600Y844800D03*
X591600Y844800D03*
X922200Y282000D03*
X922200Y465600D03*
X208200Y843000D03*
X452400Y177600D03*
X534000Y178200D03*
X486600Y307800D03*
X486600Y558000D03*
X194400Y558600D03*
X107400Y558600D03*
X462000Y325800D03*
X461400Y576600D03*
X189600Y692400D03*
X87600Y693000D03*
X520200Y208800D03*
X520200Y534600D03*
X154800Y580800D03*
X106200Y580200D03*
X129000Y81000D03*
X233400Y81000D03*
M02*
