M48
;GenerationSoftware,Autodesk,EAGLE,9.6.2*%
;CreationDate,2023-08-22T01:46:50Z*%
FMAT,2
ICI,OFF
METRIC,TZ,000.000
T10C0.350
T9C0.800
T8C0.813
T7C1.016
T6C1.020
T5C1.290
T4C1.320
T3C1.321
T2C3.000
T1C3.500
%
G90
M71
T1
X6000Y93000
X100000Y93000
X6000Y4000
T2
X41865Y13550
X41865Y38060
X-5085Y38060
X-5085Y13550
X100000Y3900
T3
X100990Y29956
X57704Y92350
X100990Y34960
X100990Y39964
X100870Y49356
X100870Y54360
X100870Y59364
X101470Y20504
X75604Y92290
X70600Y92290
X65596Y92290
X52700Y92350
X47696Y92350
X39764Y92830
X34760Y92830
X29756Y92830
X6210Y86869
X6210Y81865
X101470Y10496
X101470Y15500
T4
X41000Y78870
X29000Y78870
X29000Y66670
X41000Y66670
X59160Y79050
X47160Y66850
X59160Y66850
X77470Y78930
X65470Y78930
X65470Y66730
X77470Y66730
X85470Y46540
X85470Y58540
X73930Y9200
X73930Y21200
X86130Y21200
X86130Y9200
X47160Y79050
X73390Y40410
X85590Y40410
X85590Y28410
X73270Y46540
X73270Y58540
X73390Y28410
T5
X35000Y80870
X53160Y81050
X71470Y80930
X87470Y52540
X88130Y15200
X87590Y34410
T6
X33355Y13130
X35895Y13130
X38435Y13130
X2875Y38530
X5415Y38530
X7955Y38530
X10495Y38530
X13035Y38530
X15575Y38530
X18115Y38530
X20655Y38530
X23195Y38530
X25735Y38530
X30815Y38530
X33355Y38530
X35895Y38530
X38435Y38530
X28275Y38530
X2875Y13130
X5415Y13130
X7955Y13130
X10495Y13130
X13035Y13130
X15575Y13130
X18115Y13130
X20655Y13130
X23195Y13130
X25735Y13130
X28275Y13130
X30815Y13130
T7
X60630Y13030
X63170Y13030
X29400Y5400
X26860Y5400
X18920Y5400
X16380Y5400
X13840Y5400
X31940Y5400
X5460Y74480
X5460Y69400
X5580Y59300
X5580Y56760
X5580Y54220
X5460Y71940
X50470Y13030
X53010Y13030
X55550Y13030
X58090Y13030
T8
X55530Y33570
X63150Y48810
X63150Y46270
X63150Y43730
X63150Y41190
X63150Y38650
X63150Y36110
X63150Y31030
X55530Y31030
X55530Y41190
X55530Y38650
X55530Y43730
X55530Y46270
X63150Y33570
X55530Y36110
X55530Y48810
X55530Y51350
X63150Y51350
T9
X62910Y22150
X58910Y22150
T10
X92220Y63720
X52020Y20880
X15480Y58080
X18960Y69240
X46140Y57660
X92220Y5460
X46200Y32580
X23340Y8100
X12900Y8100
X10740Y55860
X52020Y53460
X8760Y69300
X19440Y55860
X48660Y55800
X48660Y30780
X53400Y17820
X20820Y84300
X45240Y17760
X92220Y46560
X92220Y28200
X59160Y84480
X42360Y84480
X89160Y84480
X10620Y58020
M30